<svg width="50" height="50" viewBox="0 0 50 50" fill="none" xmlns="http://www.w3.org/2000/svg">
<path d="M6.42916 29.0956C3.96313 28.6846 2.08331 26.541 2.08331 23.9583V21.875C2.08331 21.2997 2.54968 20.8333 3.12498 20.8333C3.70028 20.8333 4.16665 21.2997 4.16665 21.875V23.9583C4.16665 25.324 5.04265 26.485 6.2634 26.9102C6.25445 26.6248 6.24998 26.3353 6.24998 26.0417C6.24998 18.7148 13.7732 12.5 26.0416 12.5C28.9252 12.5 31.4776 12.7768 33.7001 13.3347C34.6672 10.4041 37.4277 8.33332 40.625 8.33332C41.2003 8.33332 41.6666 8.79969 41.6666 9.37499V17.9897C42.3699 18.8422 42.9509 19.791 43.4089 20.8333H46.875C47.4503 20.8333 47.9166 21.2997 47.9166 21.875V30.2083C47.9166 30.7836 47.4503 31.25 46.875 31.25H43.656C43.2977 33.227 41.9181 35.13 39.5833 36.9713V44.7917C39.5833 45.367 39.1169 45.8333 38.5416 45.8333H32.2916C31.7164 45.8333 31.25 45.367 31.25 44.7917V41.6667H20.8333V44.7917C20.8333 45.367 20.3669 45.8333 19.7916 45.8333H13.5416C12.9664 45.8333 12.5 45.367 12.5 44.7917V39.1665C9.03533 37.2015 7.01462 33.8135 6.42916 29.0956ZM35.4829 14.7909C35.3826 15.4154 34.7533 15.8071 34.1486 15.6213C31.9029 14.9316 29.2 14.5833 26.0416 14.5833C14.8452 14.5833 8.33331 19.9627 8.33331 26.0417C8.33331 31.9271 10.2305 35.7215 14.0075 37.61C14.3604 37.7864 14.5833 38.1471 14.5833 38.5417V43.75H18.75V40.625C18.75 40.0497 19.2164 39.5833 19.7916 39.5833H32.2916C32.8669 39.5833 33.3333 40.0497 33.3333 40.625V43.75H37.5V36.4583C37.5 36.1305 37.6544 35.8217 37.9167 35.625C40.4578 33.7191 41.6666 31.9059 41.6666 30.2083C41.6666 29.633 42.133 29.1667 42.7083 29.1667H45.8333V22.9167H42.7083C42.2741 22.9167 41.8854 22.6473 41.733 22.2407C41.2802 21.0332 40.6512 19.9763 39.8445 19.0637C39.6762 18.8733 39.5833 18.6279 39.5833 18.3738V10.5213C37.4899 10.9474 35.8297 12.6329 35.4829 14.7909ZM20.8333 9.37499C20.8333 9.95029 20.3669 10.4167 19.7916 10.4167C19.2164 10.4167 18.75 9.95029 18.75 9.37499C18.75 6.49851 21.0818 4.16666 23.9583 4.16666H24.0099C26.8866 4.16666 29.2186 6.49865 29.2186 9.37531C29.2186 9.95061 28.7522 10.417 28.1769 10.417C27.6016 10.417 27.1353 9.95061 27.1353 9.37531C27.1353 7.64925 25.736 6.24999 24.0099 6.24999H23.9583C22.2324 6.24999 20.8333 7.6491 20.8333 9.37499ZM35.4166 25C34.2661 25 33.3333 24.0673 33.3333 22.9167C33.3333 21.7661 34.2661 20.8333 35.4166 20.8333C36.5672 20.8333 37.5 21.7661 37.5 22.9167C37.5 24.0673 36.5672 25 35.4166 25Z" fill="#E58383"/>
</svg>
