<svg width="50" height="50" viewBox="0 0 50 50" fill="none" xmlns="http://www.w3.org/2000/svg">
<path d="M47 47.5V19.4C47 18.7 46.45 18.15 45.75 18.15H37.65C36.95 18.15 36.4 18.7 36.4 19.4V47.5H32V14.4C32 13.7 31.45 13.15 30.75 13.15H22.65C21.95 13.15 21.4 13.7 21.4 14.4V47.5H17V9.4C17 8.7 16.45 8.15 15.75 8.15H7.65002C6.95002 8.15 6.40002 8.7 6.40002 9.4V47.5H2.90002V1.25C2.90002 0.55 2.30002 0 1.65002 0C0.950024 0 0.400024 0.55 0.400024 1.25V50H48.3C49 50 49.55 49.45 49.55 48.75C49.55 48.05 49 47.5 48.3 47.5H47ZM8.90002 47.5V11.15C8.90002 10.85 9.10002 10.65 9.40002 10.65H14C14.3 10.65 14.5 10.85 14.5 11.15V47.5H8.90002ZM23.9 47.5V16.15C23.9 15.85 24.1 15.65 24.4 15.65H29C29.3 15.65 29.5 15.85 29.5 16.15V47.5H23.9ZM38.9 47.5V21.15C38.9 20.85 39.1 20.65 39.4 20.65H44C44.3 20.65 44.5 20.85 44.5 21.15V47.5H38.9Z" fill="#E58383"/>
</svg>
