<svg width="25" height="25" viewBox="0 0 50 50" fill="none" xmlns="http://www.w3.org/2000/svg">
<path d="M47.7734 26.3476C47.2461 26.3086 46.7773 26.6797 46.7188 27.207C45.5859 38.3789 36.25 46.8164 25 46.8164C12.9688 46.8164 3.16406 37.0312 3.16406 24.9805C3.16406 13.7305 11.6016 4.39452 22.7734 3.26171C23.3008 3.20312 23.6914 2.73437 23.6328 2.20702C23.5742 1.67968 23.1055 1.28906 22.5781 1.34765C10.4297 2.59765 1.25 12.7539 1.25 25C1.25 38.0859 11.9141 48.75 25 48.75C37.2461 48.75 47.4023 39.5703 48.6328 27.4219C48.6914 26.875 48.3008 26.4062 47.7734 26.3476Z" fill="#E58383"/>
<path d="M48.6328 22.5781C47.5 11.4062 38.5937 2.5 27.4219 1.36719L26.3672 1.25V23.6328H48.75L48.6328 22.5781ZM28.2813 21.7187V3.41797C37.6953 4.84375 45.1562 12.3047 46.582 21.7187H28.2813Z" fill="#E58383"/>
<path d="M20.6445 9.41407C21.0156 9.04298 21.0352 8.43751 20.6641 8.04688C20.293 7.67579 19.6875 7.65626 19.2969 8.02735L8.16407 18.9453C7.79298 19.3164 7.77345 19.9219 8.14454 20.3125C8.33985 20.5078 8.57423 20.6055 8.82813 20.6055C9.06251 20.6055 9.31642 20.5078 9.4922 20.332L20.6445 9.41407Z" fill="#E58383"/>
<path d="M9.86329 33.7109C10.0977 33.7109 10.3516 33.6133 10.5274 33.4375L22.2266 21.9727C22.5977 21.6016 22.6172 20.9961 22.2461 20.6055C21.875 20.2344 21.2695 20.2149 20.8789 20.5859L9.1797 32.0508C8.8086 32.4219 8.78907 33.0274 9.16017 33.418C9.35548 33.6133 9.60938 33.7109 9.86329 33.7109Z" fill="#E58383"/>
<path d="M16.9141 40.918C17.1484 40.918 17.4024 40.8203 17.5781 40.6445L29.3555 29.1211C29.7266 28.75 29.7461 28.1445 29.375 27.7539C29.0039 27.3828 28.3984 27.3633 28.0078 27.7344L16.2305 39.2578C15.8594 39.6289 15.8399 40.2344 16.2109 40.625C16.4258 40.8203 16.6602 40.918 16.9141 40.918Z" fill="#E58383"/>
<path d="M30 42.2461C30.2344 42.2461 30.4883 42.1484 30.6641 41.9727L41.8359 31.0352C42.207 30.6641 42.2266 30.0586 41.8555 29.668C41.4844 29.2969 40.8789 29.2774 40.4883 29.6484L29.3164 40.5859C28.9453 40.957 28.9258 41.5625 29.2969 41.9531C29.5117 42.1484 29.7461 42.2461 30 42.2461Z" fill="#E58383"/>
</svg>
