<svg width="25" height="25" viewBox="0 0 50 50" fill="none" xmlns="http://www.w3.org/2000/svg">
<path d="M41.2187 13.3437C41.8598 12.1194 42.1923 10.757 42.1875 9.375C42.1875 7.0958 41.2821 4.90994 39.6704 3.2983C38.0588 1.68666 35.873 0.78125 33.5938 0.78125C31.3145 0.78125 29.1287 1.68666 27.5171 3.2983C25.9054 4.90994 25 7.0958 25 9.375C24.9952 10.757 25.3277 12.1194 25.9688 13.3437C25.0494 13.4851 24.2107 13.9499 23.6034 14.6545C22.9962 15.3592 22.6603 16.2573 22.6562 17.1875V25.7812H18.0703C16.8451 25.7816 15.6413 26.1021 14.5781 26.7109L10.7266 28.9062H5.46875V42.9688H12.2656L15.1797 44.9141C16.3365 45.6848 17.6959 46.0953 19.0859 46.0938H22.7344C22.9145 46.9761 23.3939 47.7691 24.0915 48.3385C24.7891 48.908 25.662 49.2189 26.5625 49.2188H40.625C41.661 49.2188 42.6546 48.8072 43.3871 48.0746C44.1197 47.3421 44.5312 46.3485 44.5312 45.3125V17.1875C44.5272 16.2573 44.1913 15.3592 43.5841 14.6545C42.9769 13.9499 42.1381 13.4851 41.2187 13.3437ZM33.5938 2.34375C34.8668 2.34422 36.1158 2.6903 37.2076 3.34508C38.2993 3.99985 39.1928 4.93875 39.7927 6.06158C40.3927 7.18441 40.6765 8.44905 40.6139 9.72056C40.5513 10.9921 40.1447 12.2227 39.4375 13.2812H34.375V13.1406C34.8917 12.9531 35.3261 12.59 35.6022 12.1147C35.8783 11.6395 35.9785 11.0823 35.8855 10.5405C35.7924 9.99882 35.5119 9.50705 35.093 9.15118C34.674 8.79532 34.1434 8.59801 33.5938 8.59375C33.4392 8.59375 33.2882 8.54793 33.1597 8.46209C33.0312 8.37624 32.9311 8.25423 32.872 8.11147C32.8128 7.96872 32.7974 7.81163 32.8275 7.66009C32.8577 7.50854 32.9321 7.36933 33.0413 7.26007C33.1506 7.15081 33.2898 7.07641 33.4413 7.04626C33.5929 7.01612 33.75 7.03159 33.8927 7.09072C34.0355 7.14985 34.1575 7.24998 34.2433 7.37846C34.3292 7.50694 34.375 7.65798 34.375 7.8125H35.9375C35.9361 7.32895 35.7853 6.85766 35.5055 6.46323C35.2258 6.06881 34.8309 5.77056 34.375 5.60937V3.90625H32.8125V5.60937C32.2958 5.79686 31.8614 6.15998 31.5853 6.63526C31.3092 7.11054 31.209 7.66774 31.302 8.20946C31.3951 8.75118 31.6756 9.24295 32.0945 9.59882C32.5135 9.95468 33.0441 10.152 33.5938 10.1562C33.7483 10.1563 33.8993 10.2021 34.0278 10.2879C34.1563 10.3738 34.2564 10.4958 34.3155 10.6385C34.3747 10.7813 34.3901 10.9384 34.36 11.0899C34.3298 11.2415 34.2554 11.3807 34.1462 11.4899C34.0369 11.5992 33.8977 11.6736 33.7462 11.7037C33.5946 11.7339 33.4375 11.7184 33.2948 11.6593C33.152 11.6001 33.03 11.5 32.9442 11.3715C32.8583 11.2431 32.8125 11.092 32.8125 10.9375H31.25C31.2514 11.4211 31.4022 11.8923 31.682 12.2868C31.9617 12.6812 32.3566 12.9794 32.8125 13.1406V13.2812H27.75C27.0428 12.2227 26.6362 10.9921 26.5736 9.72056C26.511 8.44905 26.7948 7.18441 27.3948 6.06158C27.9947 4.93875 28.8882 3.99985 29.9799 3.34508C31.0717 2.6903 32.3207 2.34422 33.5938 2.34375V2.34375ZM26.5625 14.8438H40.625C41.2466 14.8438 41.8427 15.0907 42.2823 15.5302C42.7218 15.9698 42.9688 16.5659 42.9688 17.1875V19.5312H24.2188V17.1875C24.2188 16.5659 24.4657 15.9698 24.9052 15.5302C25.3448 15.0907 25.9409 14.8438 26.5625 14.8438ZM24.2188 21.0938H42.9688V41.4062H24.2188V32.0312H25.7812V39.8438H41.4062V22.6562H25.7812V25.7812H24.2188V21.0938ZM27.3438 25.7812V24.2188H39.8438V38.2812H27.3438V32.0312C28.1726 32.0312 28.9674 31.702 29.5535 31.116C30.1395 30.5299 30.4688 29.7351 30.4688 28.9062C30.4688 28.0774 30.1395 27.2826 29.5535 26.6965C28.9674 26.1105 28.1726 25.7812 27.3438 25.7812ZM16.0469 43.6094L12.7344 41.4062H7.03125V30.4688H11.1484L15.3516 28.0625C16.1806 27.5924 17.1172 27.3448 18.0703 27.3438H27.3438C27.7582 27.3438 28.1556 27.5084 28.4486 27.8014C28.7416 28.0944 28.9062 28.4918 28.9062 28.9062C28.9062 29.3207 28.7416 29.7181 28.4486 30.0111C28.1556 30.3041 27.7582 30.4688 27.3438 30.4688H17.1875V31.25C17.1875 32.286 16.7759 33.2796 16.0434 34.0121C15.3108 34.7447 14.3173 35.1562 13.2812 35.1562V36.7188C14.5965 36.7191 15.8679 36.2454 16.8623 35.3844C17.8566 34.5235 18.5074 33.333 18.6953 32.0312H22.6562V44.5312H19.0781C17.9989 44.5298 16.9442 44.209 16.0469 43.6094V43.6094ZM40.625 47.6562H26.5625C25.9409 47.6562 25.3448 47.4093 24.9052 46.9698C24.4657 46.5302 24.2188 45.9341 24.2188 45.3125V42.9688H42.9688V45.3125C42.9688 45.9341 42.7218 46.5302 42.2823 46.9698C41.8427 47.4093 41.2466 47.6562 40.625 47.6562Z" fill="#E58383"/>
<path d="M35.9375 16.4062H31.25V17.9688H35.9375V16.4062Z" fill="#E58383"/>
<path d="M35.1562 44.5312H32.0312V46.0938H35.1562V44.5312Z" fill="#E58383"/>
<path d="M39.0625 16.4062H37.5V17.9688H39.0625V16.4062Z" fill="#E58383"/>
<path d="M29.6875 16.4062H28.125V17.9688H29.6875V16.4062Z" fill="#E58383"/>
<path d="M33.5938 33.5938C33.3865 33.5938 33.1878 33.5114 33.0413 33.3649C32.8948 33.2184 32.8125 33.0197 32.8125 32.8125H31.25C31.2514 33.2961 31.4022 33.7673 31.682 34.1618C31.9617 34.5562 32.3566 34.8544 32.8125 35.0156V36.7188H34.375V35.0156C34.8917 34.8281 35.3261 34.465 35.6022 33.9897C35.8783 33.5145 35.9785 32.9573 35.8855 32.4155C35.7924 31.8738 35.5119 31.382 35.093 31.0262C34.674 30.6703 34.1434 30.473 33.5938 30.4688C33.4392 30.4688 33.2882 30.4229 33.1597 30.3371C33.0312 30.2512 32.9311 30.1292 32.872 29.9865C32.8128 29.8437 32.7974 29.6866 32.8275 29.5351C32.8577 29.3835 32.9321 29.2443 33.0413 29.1351C33.1506 29.0258 33.2898 28.9514 33.4413 28.9213C33.5929 28.8911 33.75 28.9066 33.8927 28.9657C34.0355 29.0249 34.1575 29.125 34.2433 29.2535C34.3292 29.3819 34.375 29.533 34.375 29.6875H35.9375C35.9361 29.2039 35.7853 28.7327 35.5055 28.3382C35.2258 27.9438 34.8309 27.6456 34.375 27.4844V25.7812H32.8125V27.4844C32.2958 27.6719 31.8614 28.035 31.5853 28.5103C31.3092 28.9855 31.209 29.5427 31.302 30.0845C31.3951 30.6262 31.6756 31.118 32.0945 31.4738C32.5135 31.8297 33.0441 32.027 33.5938 32.0312C33.801 32.0312 33.9997 32.1136 34.1462 32.2601C34.2927 32.4066 34.375 32.6053 34.375 32.8125C34.375 33.0197 34.2927 33.2184 34.1462 33.3649C33.9997 33.5114 33.801 33.5938 33.5938 33.5938Z" fill="#E58383"/>
</svg>
